<svg width="43" height="50" viewBox="0 0 43 50" fill="none" xmlns="http://www.w3.org/2000/svg">
<path d="M1.7675 9.6425C1.7675 4.3225 6.09 0 11.41 0C15.8025 0 19.5195 2.9645 20.6675 7.014C20.9098 6.99599 21.153 6.99482 21.3955 7.0105C21.9677 4.9937 23.1817 3.21832 24.8534 1.95331C26.5251 0.688302 28.5636 0.00257344 30.66 0C35.98 0 40.3025 4.3225 40.3025 9.6425C40.3025 9.7125 40.3025 9.7825 40.285 9.835V18.3925C40.285 18.6199 40.1947 18.838 40.0338 18.9988C39.873 19.1597 39.6549 19.25 39.4275 19.25C39.2001 19.25 38.982 19.1597 38.8212 18.9988C38.6603 18.838 38.57 18.6199 38.57 18.3925V9.7475C38.57 5.3375 35.0175 1.715 30.6075 1.75C28.9154 1.76825 27.2738 2.32866 25.9238 3.3489C24.5737 4.36913 23.5865 5.79542 23.107 7.41825C24.3687 7.95349 25.3711 8.96089 25.9 10.2253C27.1256 11.0432 28.1249 12.1574 28.805 13.4645L29.0518 13.3875C29.6117 13.2125 29.9968 12.6875 29.9968 12.0925V8.6275C29.9968 7.175 30.7842 5.845 32.0617 5.145L33.0592 4.6025C33.7068 4.2525 34.4942 4.4975 34.8442 5.1275C35.1942 5.775 34.9492 6.5625 34.3193 6.9125L33.3218 7.455C32.8843 7.7 32.6217 8.155 32.6217 8.645V12.1275C32.6217 13.8775 31.5018 15.4 29.8393 15.925L29.5767 16.0072C29.5491 16.2703 29.4597 16.5231 29.3159 16.7451C29.172 16.9671 28.9778 17.152 28.749 17.2847C29.3373 17.6648 29.8207 18.1866 30.1549 18.8021C30.4891 19.4176 30.6634 20.1071 30.6618 20.8075V22.82L31.0118 22.47C31.3259 22.1579 31.7014 21.9143 32.1144 21.7547C32.5275 21.5951 32.9692 21.5229 33.4116 21.5426C33.8539 21.5623 34.2874 21.6736 34.6846 21.8694C35.0818 22.0651 35.4341 22.3412 35.7192 22.68L39.2017 26.81C39.3767 27.0025 39.6393 27.125 39.9018 27.125H40.8993C41.6167 27.125 42.2118 27.72 42.2118 28.4375C42.2118 29.155 41.6167 29.75 40.8993 29.75H39.9018C38.8517 29.75 37.8717 29.295 37.1717 28.5075L33.6892 24.3775C33.6422 24.3146 33.5815 24.2631 33.5119 24.2267C33.4422 24.1904 33.3653 24.1702 33.2868 24.1675C33.1992 24.15 33.0243 24.1675 32.8667 24.325L30.6618 26.53V31.5H34.0568C34.9142 31.5 35.6842 31.885 36.2093 32.585C36.7168 33.25 36.8742 34.1075 36.6468 34.93L34.1442 43.6625C34.1442 43.68 34.1442 43.6975 34.1618 43.7325C34.1968 43.7675 34.2143 43.7675 34.2318 43.7675H35.4743C36.1917 43.7675 36.7868 44.3625 36.7868 45.08C36.7868 45.7975 36.1917 46.3925 35.4743 46.3925H34.2318C33.3743 46.3925 32.5868 45.99 32.0617 45.3075C31.5542 44.6075 31.3967 43.75 31.6242 42.9275L34.1267 34.195C34.1267 34.1775 34.1267 34.16 34.1092 34.1425C34.0917 34.125 34.0742 34.125 34.0568 34.125H30.6618V38.08C30.6637 39.7914 30.2796 41.4811 29.5378 43.0234C28.7961 44.5656 27.7159 45.9207 26.3778 46.9875L24.1028 48.8075C23.2349 49.5005 22.1573 49.8781 21.0467 49.8784C19.9361 49.8787 18.8583 49.5018 17.99 48.8092L15.6975 46.9893L15.694 46.9875C14.3577 45.9152 13.2792 44.5566 12.538 43.0119C11.7969 41.4672 11.412 39.7758 11.4117 38.0625V34.125H8.015C7.9975 34.125 7.98 34.125 7.9625 34.1425C7.945 34.16 7.945 34.1775 7.945 34.195L10.4475 42.9275C10.675 43.75 10.5175 44.6075 10.01 45.3075C9.485 45.99 8.6975 46.3925 7.84 46.3925H6.5975C5.88 46.3925 5.285 45.7975 5.285 45.08C5.285 44.3625 5.88 43.7675 6.5975 43.7675H7.84C7.8575 43.7675 7.875 43.7675 7.91 43.7325C7.9275 43.6975 7.9275 43.68 7.9275 43.6625L5.425 34.93C5.1975 34.1075 5.355 33.25 5.8625 32.5675C6.37 31.885 7.1575 31.5 8.015 31.5H11.41V26.39L9.345 24.325C9.1875 24.1675 9.0125 24.15 8.925 24.1675C8.8375 24.1675 8.6625 24.2025 8.5225 24.3775L5.04 28.5075C4.34 29.295 3.36 29.75 2.31 29.75H1.3125C0.964403 29.75 0.630564 29.6117 0.384422 29.3656C0.138281 29.1194 0 28.7856 0 28.4375C0 28.0894 0.138281 27.7556 0.384422 27.5094C0.630564 27.2633 0.964403 27.125 1.3125 27.125H2.31C2.5725 27.125 2.835 27.0025 3.01 26.81L6.4925 22.68C6.77761 22.3412 7.1299 22.0651 7.52711 21.8694C7.92431 21.6736 8.3578 21.5623 8.80019 21.5426C9.24259 21.5229 9.68426 21.5951 10.0973 21.7547C10.5104 21.9143 10.8858 22.1579 11.2 22.47L11.41 22.68V20.79C11.4094 20.0909 11.5848 19.4029 11.92 18.7894C12.2551 18.1759 12.7394 17.6567 13.328 17.2795C13.0988 17.1469 12.9046 16.9615 12.7615 16.7387C12.6184 16.5159 12.5307 16.2621 12.5055 15.9985L12.215 15.9075C10.5525 15.3825 9.4325 13.86 9.4325 12.11V8.645C9.4325 8.155 9.17 7.7 8.7325 7.455L7.7175 6.9125C7.0875 6.5625 6.8425 5.775 7.1925 5.1275C7.5425 4.4975 8.33 4.2525 8.9775 4.6025L9.975 5.145C11.2525 5.845 12.04 7.175 12.04 8.6275V12.0925C12.04 12.6875 12.425 13.2125 12.985 13.3875L13.293 13.4837C13.9794 12.172 14.9813 11.0516 16.2085 10.2235C16.7321 8.97092 17.7206 7.96988 18.9665 7.4305C18.489 5.80482 17.5022 4.37542 16.1513 3.35278C14.8003 2.33014 13.1567 1.7683 11.4625 1.75C7.0525 1.715 3.5 5.3375 3.5 9.7475V18.3925C3.5 18.6199 3.40966 18.838 3.24884 18.9988C3.08803 19.1597 2.86992 19.25 2.6425 19.25C2.41508 19.25 2.19697 19.1597 2.03616 18.9988C1.87534 18.838 1.785 18.6199 1.785 18.3925V9.835C1.7675 9.7825 1.7675 9.7125 1.7675 9.6425ZM13.5065 40.6333C14.049 42.5988 15.1964 44.3437 16.786 45.6208L16.7878 45.6225L19.0785 47.4425C19.6366 47.8881 20.3296 48.1307 21.0437 48.1307C21.7579 48.1307 22.4509 47.8881 23.009 47.4425L25.284 45.6225L25.4958 45.4475C26.9826 44.1908 28.0535 42.5129 28.567 40.635C26.8194 39.7032 25.3582 38.3136 24.3397 36.6151C23.3212 34.9165 22.7838 32.973 22.785 30.9925V18.375H19.285V30.9925C19.2862 32.9723 18.7492 34.9153 17.7314 36.6134C16.7135 38.3116 15.2532 39.7011 13.5065 40.6333Z" fill="black"/>
</svg>
