<svg width="48" height="48" viewBox="0 0 48 48" fill="none" xmlns="http://www.w3.org/2000/svg">
<path d="M18.234 6.17502C18.234 6.24002 18.2177 6.30502 18.2015 6.37002H18.6223C18.7198 6.37002 18.7848 6.28877 18.7848 6.19127V6.17502C18.7848 5.76877 18.4273 5.54127 18.1023 5.54127C17.9598 5.5405 17.8199 5.58054 17.6993 5.65665C17.7354 5.64415 17.7733 5.6381 17.8115 5.63877C18.039 5.63877 18.234 5.88252 18.234 6.17502Z" fill="white" fill-opacity="0.6"/>
<path d="M17.5986 6.3701H17.9886C18.0211 6.3051 18.0373 6.2401 18.0373 6.1751C18.0373 5.99635 17.9236 5.86635 17.7936 5.86635C17.761 5.86499 17.7287 5.87348 17.701 5.89073C17.7183 5.90914 17.7275 5.93352 17.7286 5.96385C17.7286 6.01748 17.6912 6.06135 17.6473 6.06135C17.6343 6.0608 17.6216 6.05712 17.6103 6.05061C17.5989 6.04411 17.5894 6.03497 17.5823 6.02398C17.5595 6.07101 17.5484 6.12285 17.5498 6.1751C17.5498 6.2401 17.5661 6.3051 17.5986 6.3701ZM18.4078 7.6441C18.4263 7.65015 18.4433 7.65981 18.458 7.67252C18.4727 7.68523 18.4847 7.70073 18.4933 7.71813C18.5019 7.73552 18.507 7.75446 18.5082 7.77383C18.5095 7.79321 18.5068 7.81263 18.5005 7.83098C18.4687 7.92993 18.4175 8.02154 18.3499 8.10043C18.2822 8.17932 18.1995 8.2439 18.1066 8.29038C18.0136 8.33685 17.9123 8.36428 17.8086 8.37106C17.7049 8.37784 17.6009 8.36383 17.5027 8.32985C17.4844 8.32377 17.4674 8.31413 17.4528 8.30149C17.4381 8.28885 17.4261 8.27345 17.4175 8.25617C17.4088 8.2389 17.4036 8.22008 17.4022 8.2008C17.4008 8.18151 17.4032 8.16214 17.4093 8.14379C17.4154 8.12544 17.425 8.10846 17.4376 8.09384C17.4503 8.07921 17.4657 8.06721 17.4829 8.05854C17.5002 8.04986 17.519 8.04467 17.5383 8.04327C17.5576 8.04186 17.577 8.04427 17.5953 8.05035C17.657 8.07212 17.7225 8.08124 17.7878 8.07717C17.8531 8.0731 17.917 8.05591 17.9755 8.02665C18.034 7.99738 18.0861 7.95663 18.1285 7.90682C18.171 7.85701 18.203 7.79916 18.2226 7.73673C18.2286 7.71847 18.2382 7.70158 18.2508 7.68704C18.2634 7.67249 18.2788 7.66058 18.296 7.65197C18.3132 7.64337 18.3319 7.63824 18.3511 7.63689C18.3703 7.63554 18.3896 7.63799 18.4078 7.6441Z" fill="white" fill-opacity="0.6"/>
<path d="M34.1752 15.7284L31.8564 17.875H34.3914C35.4183 17.8906 36.4325 18.1047 37.3781 18.5055V13.8125C37.3811 12.7338 37.8119 11.7002 38.5759 10.9386C39.3399 10.1771 40.3748 9.7496 41.4536 9.75003H43.3386C43.6799 9.75003 43.8765 9.49003 43.8765 9.18128V7.28003C43.8765 6.84128 44.2811 6.50003 44.7199 6.50003C46.0849 6.50003 47.1265 7.58878 47.1265 8.93753V12.1875C47.1265 14.43 45.3536 16.25 43.1111 16.25H41.2261C40.9011 16.25 40.6265 16.51 40.6265 16.835V21.0373C41.6826 22.4268 42.253 24.1247 42.2499 25.87V37.5375C42.2499 38.48 41.9249 39.4063 41.3399 40.1375L36.0749 46.7188C35.8636 46.9788 35.5549 47.125 35.2299 47.125H33.2474C32.9386 47.125 32.7599 46.7675 32.9549 46.5238L36.5949 41.665C36.9021 41.2553 37.1257 40.7891 37.2528 40.2929C37.3799 39.7968 37.4081 39.2805 37.3357 38.7735C37.2632 38.2665 37.0916 37.7787 36.8307 37.338C36.5698 36.8973 36.2246 36.5123 35.8149 36.205L34.0501 34.8807L28.0474 40.8688C27.9163 40.9955 27.8117 41.1469 27.7395 41.3142C27.6672 41.4816 27.6288 41.6615 27.6265 41.8438V43.3713C27.6265 43.6638 27.3974 43.8913 27.1211 43.8913H24.8949C24.6024 43.8913 24.3749 43.6475 24.3749 43.3713V41.8438C24.3749 40.5925 24.8624 39.4388 25.7399 38.5775L27.1699 37.1475C27.4607 36.8532 27.6241 36.4563 27.6249 36.0425V32.5H16.7861C15.6486 32.5 14.5761 32.2725 13.5849 31.8338C13.5057 31.8001 13.4182 31.7915 13.334 31.8089C13.2498 31.8263 13.1729 31.869 13.1136 31.9313L11.6836 33.3613C11.5791 33.4682 11.4978 33.5956 11.4446 33.7354C11.3915 33.8752 11.3678 34.0244 11.3749 34.1738C11.3911 34.45 11.5211 34.71 11.7161 34.9213L13.7636 36.985C14.0236 37.2288 14.3649 37.375 14.7224 37.375H15.4699C15.9086 37.375 16.2499 37.7163 16.2499 38.155V39.845C16.2499 40.2838 15.9086 40.625 15.4699 40.625H14.7224C13.5036 40.625 12.3499 40.1538 11.4724 39.2763L9.44111 37.2288C8.62861 36.4 8.12486 35.295 8.12486 34.125C8.12486 32.9713 8.57986 31.8825 9.39236 31.0538L10.4324 30.0138C10.5949 29.8513 10.5949 29.6075 10.4649 29.445C10.0202 28.8909 9.65335 28.2785 9.37448 27.625H5.94573C5.34448 27.625 4.87323 28.1125 4.87323 28.6975V32.5325C4.87323 32.89 5.01948 33.2313 5.26323 33.4913L5.89698 34.125C6.14073 34.3688 6.14073 34.7588 5.89698 35.0025L4.48323 36.4325C4.42581 36.4905 4.35748 36.5365 4.28217 36.5679C4.20686 36.5993 4.12608 36.6155 4.04448 36.6155C3.96289 36.6155 3.8821 36.5993 3.80679 36.5679C3.73148 36.5365 3.66315 36.4905 3.60573 36.4325L2.97198 35.7988C2.09448 34.9213 1.62323 33.7675 1.62323 32.5325V28.6975C1.62323 26.3088 3.55698 24.375 5.94573 24.375H8.63186L7.40173 15.4668C7.76278 15.9872 8.24517 16.4119 8.80718 16.7041C9.3692 16.9963 9.99393 17.1472 10.6274 17.1438H12.0639L12.0606 17.1308C11.8777 16.6195 11.8329 16.0691 11.9306 15.535H11.3749V4.32578C12.0314 4.8604 12.5562 5.37878 12.9511 6.09378L16.7829 13H18.0991L18.7621 11.6155C17.9353 11.65 17.1283 11.3562 16.5171 10.7983C15.9059 10.2404 15.54 9.46346 15.4991 8.6369C15.136 8.30387 14.9017 7.85356 14.8375 7.36502C14.7733 6.87648 14.8833 6.38094 15.1481 5.9654C14.8165 5.68478 14.5729 5.3145 14.4464 4.89892C14.3199 4.48335 14.3159 4.04011 14.4349 3.62233C14.554 3.20456 14.7909 2.82996 15.1174 2.54345C15.444 2.25693 15.8462 2.07064 16.2759 2.0069C16.7684 1.38167 17.3963 0.876241 18.1123 0.528638C18.8284 0.181035 19.6139 0.000301543 20.4099 2.92991e-05C21.5829 -0.00389252 22.7234 0.386006 23.6485 1.10727C24.5737 1.82854 25.23 2.83943 25.5124 3.97803C25.6326 4.46065 25.5725 4.96928 25.3417 5.40965C25.3417 5.77907 25.2941 6.14253 25.1987 6.50003H30.714C32.0956 6.48296 33.4282 7.01134 34.4226 7.97053C35.4171 8.92972 35.9933 10.2424 36.0261 11.6237C36.058 12.914 35.6059 14.1696 34.7586 15.1434C34.5859 15.3584 34.3893 15.5545 34.1752 15.7284ZM16.609 4.87503H17.0445C17.038 4.95628 17.0353 5.03753 17.0364 5.11878V5.73628C17.0377 5.93018 16.9872 6.12092 16.8901 6.28878C16.8056 6.43503 16.7135 6.57586 16.6139 6.71128C16.5222 6.80959 16.4652 6.93511 16.4514 7.06878C16.4514 7.20238 16.5044 7.33051 16.5989 7.42498C16.6934 7.51946 16.8215 7.57253 16.9551 7.57253C17.0039 7.57253 17.0364 7.62128 17.0526 7.67003C17.0851 9.03503 17.3451 9.99378 18.9701 9.99378C19.3667 9.98832 19.7603 9.92481 20.1385 9.80528L20.7999 11.1199L21.8399 8.93753C22.0836 8.41753 22.6199 8.12503 23.1561 8.12503H23.4697C23.513 8.0284 23.53 7.92206 23.519 7.81676C23.5079 7.71146 23.4693 7.61094 23.407 7.52535C23.3447 7.43977 23.2608 7.37217 23.164 7.32938C23.0671 7.28658 22.9607 7.27012 22.8555 7.28165C23.2038 6.99771 23.465 6.62126 23.609 6.19555C23.753 5.76984 23.774 5.31214 23.6696 4.87503H20.964V5.44703C21.188 5.46566 21.3971 5.5673 21.5501 5.73203C21.7031 5.89676 21.789 6.11271 21.7911 6.33753C21.789 6.56261 21.7028 6.77877 21.5495 6.94354C21.3961 7.10831 21.1867 7.20979 20.9624 7.22803V9.34378C20.9624 9.45152 20.9196 9.55486 20.8434 9.63104C20.7672 9.70723 20.6639 9.75003 20.5561 9.75003C20.4484 9.75003 20.345 9.70723 20.2688 9.63104C20.1927 9.55486 20.1499 9.45152 20.1499 9.34378V4.87503H16.6009H16.609ZM16.2515 14.625H14.9937C14.617 14.6252 14.2542 14.7675 13.978 15.0236C13.7017 15.2797 13.5323 15.6307 13.5036 16.0063C13.4926 16.2013 13.5212 16.3965 13.5878 16.5802C13.6543 16.7638 13.7573 16.9321 13.8907 17.0748C14.024 17.2176 14.1848 17.3318 14.3635 17.4107C14.5422 17.4896 14.735 17.5315 14.9304 17.5338H16.4725L16.2515 17.5175V14.625ZM28.5349 14.625V14.95L27.4136 15.8113C27.0777 16.1489 26.8117 16.5495 26.6307 16.9901C26.4498 17.4306 26.3574 17.9025 26.359 18.3788V21.1575C26.3557 21.7149 26.2452 22.2674 26.034 22.7825L25.5952 23.8063C25.5682 23.8682 25.557 23.9359 25.5628 24.0032C25.5685 24.0706 25.591 24.1354 25.6281 24.1919C25.6652 24.2484 25.7158 24.2947 25.7753 24.3267C25.8348 24.3586 25.9014 24.3753 25.969 24.375H28.8582C28.9637 24.3717 29.0637 24.3274 29.1371 24.2515C29.2105 24.1757 29.2515 24.0743 29.2515 23.9688V18.3869C29.2569 18.1962 29.3321 18.0141 29.4627 17.875L33.119 14.4967C33.2652 14.3829 33.3952 14.2529 33.509 14.1067C34.1057 13.4307 34.4249 12.5543 34.4027 11.6529C34.3689 10.7003 33.9643 9.79852 33.2753 9.13982C32.5862 8.48113 31.6672 8.11758 30.714 8.12665H28.5511V14.625H28.5349ZM34.2549 19.5H30.8749V23.9688C30.8736 24.5068 30.6594 25.0225 30.2791 25.4031C29.8988 25.7837 29.3833 25.9983 28.8452 26H25.969C25.6324 25.9999 25.301 25.9162 25.0048 25.7563C24.7086 25.5964 24.4567 25.3654 24.2719 25.084C24.0871 24.8027 23.9751 24.4798 23.946 24.1445C23.9168 23.8091 23.9715 23.4718 24.1051 23.1628L24.5325 22.1683C24.6641 21.8465 24.734 21.502 24.7372 21.1543V19.5H22.8002C21.9096 19.4981 21.0268 19.3334 20.1954 19.0142C19.9679 19.0727 19.7366 19.1138 19.5015 19.1377V25.8538C19.5015 26.8288 20.2977 27.625 21.2727 27.625H33.964C34.939 27.625 35.7531 26.8288 35.7531 25.8538L35.7385 19.6723C35.2527 19.5582 34.7538 19.5004 34.2549 19.5ZM23.1415 16.5799C22.9173 17.0507 22.6139 17.4794 22.2445 17.8474C22.4286 17.8658 22.6139 17.875 22.8002 17.875H24.76C24.812 17.3144 24.955 16.7652 25.1809 16.2468H23.304L23.1415 16.5799Z" fill="white" fill-opacity="0.6"/>
<path d="M9.75147 15.4359C9.23147 15.2783 8.97472 14.9435 8.67735 14.4625L3.99735 7.04925L4.50597 6.5H3.18647C2.94272 6.5 2.76397 6.28875 2.79647 6.045C3.00772 4.46875 4.37272 3.25 6.01397 3.25H7.20022V2.06375C7.20022 1.7225 7.57397 1.51125 7.86647 1.69L9.75147 3.1005V15.4359ZM6.16022 8.53125C6.16022 8.98625 6.51772 9.34375 6.97272 9.34375C7.42772 9.34375 7.78522 8.98625 7.78522 8.53125V7.6375C7.78522 7.1825 7.42772 6.825 6.97272 6.825C6.51772 6.825 6.16022 7.1825 6.16022 7.6375V8.53125ZM2.8501 8.29238L1.62647 9.62C1.07397 10.205 0.423973 10.8875 0.423973 10.8875C0.228985 11.1112 0.0951068 11.3815 0.0353183 11.6722C-0.0244702 11.9629 -0.00814112 12.2641 0.0827227 12.5466C0.360598 13.5688 1.41522 14.053 2.42272 13.65L5.46797 12.4199L2.8501 8.29238Z" fill="white" fill-opacity="0.6"/>
</svg>
