<svg width="56" height="56" viewBox="0 0 56 56" fill="none" xmlns="http://www.w3.org/2000/svg">
<path d="M11.6667 28L16.3333 18.6666V16.3333H9.33333V18.6666H14L9.33333 28M21 28L25.6667 18.6666V16.3333H18.6667V18.6666H23.3333L18.6667 28M30.3333 28L35 18.6666V16.3333H28V18.6666H32.6667L28 28M49 4.66663C46.4333 4.66663 44.3333 6.76663 44.3333 9.33329C44.3333 10.9666 45.2667 12.6 46.6667 13.3V39.6666H39.6667V35C41.0667 35 42 34.0666 42 32.6666V11.6666C42 10.2666 41.0667 9.33329 39.6667 9.33329H30.8C28.9333 6.53329 25.6667 4.66663 22.1667 4.66663C18.6667 4.66663 15.4 6.53329 13.5333 9.33329H4.66666C3.26666 9.33329 2.33333 10.2666 2.33333 11.6666V32.6666C2.33333 34.0666 3.26666 35 4.66666 35V51.3333H39.6667V44.3333H46.6667C49.2333 44.3333 51.3333 42.2333 51.3333 39.6666V13.3C52.7333 12.6 53.6667 10.9666 53.6667 9.33329C53.6667 6.76663 51.5667 4.66663 49 4.66663ZM6.99999 14H37.3333V30.3333H6.99999V14ZM35 46.6666H9.33333V35H35V46.6666ZM30.3333 44.3333H14V39.6666H30.3333V44.3333Z" fill="white"/>
</svg>
