<svg width="56" height="56" viewBox="0 0 56 56" fill="none" xmlns="http://www.w3.org/2000/svg">
<path d="M11.6667 28.0001L16.3333 18.6667V16.3334H9.33334V18.6667H14L9.33334 28.0001M21 28.0001L25.6667 18.6667V16.3334H18.6667V18.6667H23.3333L18.6667 28.0001M30.3333 28.0001L35 18.6667V16.3334H28V18.6667H32.6667L28 28.0001M49 4.66675C46.4333 4.66675 44.3333 6.76675 44.3333 9.33342C44.3333 10.9667 45.2667 12.6001 46.6667 13.3001V39.6668H39.6667V35.0001C41.0667 35.0001 42 34.0667 42 32.6667V11.6667C42 10.2667 41.0667 9.33342 39.6667 9.33342H30.8C28.9333 6.53341 25.6667 4.66675 22.1667 4.66675C18.6667 4.66675 15.4 6.53341 13.5333 9.33342H4.66668C3.26668 9.33342 2.33334 10.2667 2.33334 11.6667V32.6667C2.33334 34.0667 3.26668 35.0001 4.66668 35.0001V51.3334H39.6667V44.3334H46.6667C49.2333 44.3334 51.3333 42.2334 51.3333 39.6668V13.3001C52.7333 12.6001 53.6667 10.9667 53.6667 9.33342C53.6667 6.76675 51.5667 4.66675 49 4.66675ZM7.00001 14.0001H37.3333V30.3334H7.00001V14.0001ZM35 46.6668H9.33334V35.0001H35V46.6668ZM30.3333 44.3334H14V39.6668H30.3333V44.3334Z" fill="white" fill-opacity="0.6"/>
</svg>
