<svg width="16" height="16" viewBox="0 0 16 16" fill="none" xmlns="http://www.w3.org/2000/svg">
<path d="M2.638 7.31994C2.638 7.14094 2.784 7.01294 2.948 7.01294H4.25C4.29077 7.01283 4.33088 7.02326 4.36643 7.04322C4.40198 7.06318 4.43176 7.09199 4.45289 7.12686C4.47403 7.16173 4.48578 7.20146 4.48703 7.24222C4.48827 7.28297 4.47896 7.32335 4.46 7.35944L3.6785 8.85944C3.66412 8.88702 3.64445 8.91149 3.62061 8.93147C3.59677 8.95144 3.56923 8.96653 3.53956 8.97586C3.5099 8.98519 3.47868 8.98859 3.4477 8.98586C3.41672 8.98313 3.38658 8.97432 3.359 8.95994C3.33142 8.94556 3.30695 8.92589 3.28697 8.90205C3.267 8.87821 3.25191 8.85067 3.24258 8.821C3.22373 8.76109 3.22946 8.69614 3.2585 8.64044L3.8595 7.48694H3.112V7.54594C3.1092 7.60685 3.08303 7.66433 3.03894 7.70645C2.99485 7.74856 2.93622 7.77206 2.87525 7.77206C2.81428 7.77206 2.75565 7.74856 2.71156 7.70645C2.66747 7.66433 2.6413 7.60685 2.6385 7.54594L2.638 7.31994ZM6.448 7.01344C6.40741 7.01298 6.36714 7.02058 6.32952 7.03581C6.29189 7.05103 6.25767 7.07358 6.22883 7.10214C6.19999 7.1307 6.17711 7.16471 6.16152 7.20218C6.14593 7.23965 6.13793 7.27985 6.138 7.32044V7.54594C6.1408 7.60685 6.16697 7.66433 6.21106 7.70645C6.25515 7.74856 6.31378 7.77206 6.37475 7.77206C6.43572 7.77206 6.49435 7.74856 6.53844 7.70645C6.58253 7.66433 6.6087 7.60685 6.6115 7.54594V7.48644H7.3595L6.759 8.64044C6.72996 8.69614 6.72423 8.76109 6.74308 8.821C6.76193 8.88092 6.8038 8.9309 6.8595 8.95994C6.9152 8.98898 6.98015 8.99471 7.04006 8.97586C7.09998 8.95701 7.14996 8.91514 7.179 8.85944L7.96 7.35944C7.97884 7.32337 7.98806 7.28304 7.98676 7.24236C7.98545 7.20168 7.97367 7.16203 7.95255 7.12723C7.93144 7.09244 7.9017 7.06368 7.86621 7.04375C7.83073 7.02382 7.7907 7.01338 7.75 7.01344H6.448ZM9.6385 7.31994C9.6385 7.14094 9.7835 7.01294 9.948 7.01294H11.25C11.2908 7.01283 11.3309 7.02326 11.3664 7.04322C11.402 7.06318 11.4318 7.09199 11.4529 7.12686C11.474 7.16173 11.4858 7.20146 11.487 7.24222C11.4883 7.28297 11.479 7.32335 11.46 7.35944L10.6785 8.85944C10.6641 8.88702 10.6445 8.91149 10.6206 8.93147C10.5968 8.95144 10.5692 8.96653 10.5396 8.97586C10.5099 8.98519 10.4787 8.98859 10.4477 8.98586C10.4167 8.98313 10.3866 8.97432 10.359 8.95994C10.3314 8.94556 10.3069 8.92589 10.287 8.90205C10.267 8.87821 10.2519 8.85067 10.2426 8.821C10.2332 8.79134 10.2298 8.76012 10.2326 8.72914C10.2353 8.69816 10.2441 8.66802 10.2585 8.64044L10.86 7.48694H10.112V7.54594C10.112 7.6088 10.087 7.66908 10.0426 7.71352C9.99814 7.75797 9.93786 7.78294 9.875 7.78294C9.81214 7.78294 9.75186 7.75797 9.70742 7.71352C9.66297 7.66908 9.638 7.6088 9.638 7.54594L9.6385 7.31994ZM3 12.2769C3 12.1259 3.1285 11.9999 3.283 11.9999H10.717C10.8715 11.9999 11 12.1259 11 12.2769V12.6599C11 13.3999 10.3875 13.9999 9.6305 13.9999H4.37C3.6125 13.9999 3 13.4004 3 12.6599V12.2769Z" fill="white"/>
<path d="M0.5 3.666C0.5 2.696 1.356 2 2.292 2H11.713C12.6515 2 13.5 2.698 13.5 3.666V6.5H14.5V3.9575C14.3332 3.89853 14.1926 3.78248 14.1031 3.62988C14.0136 3.47728 13.9809 3.29794 14.0108 3.12357C14.0407 2.94919 14.1313 2.79101 14.2666 2.67697C14.4019 2.56294 14.5731 2.50039 14.75 2.50039C14.9269 2.50039 15.0981 2.56294 15.2334 2.67697C15.3687 2.79101 15.4593 2.94919 15.4892 3.12357C15.5191 3.29794 15.4864 3.47728 15.3969 3.62988C15.3074 3.78248 15.1668 3.89853 15 3.9575V6.5H15.1775C15.3585 6.5 15.5 6.626 15.5 6.7865V8.7135C15.5 8.869 15.3585 9 15.1775 9H13.5V14.231C13.492 14.9075 12.9585 15.5 12.25 15.5H1.75C1.0495 15.5 0.5 14.919 0.5 14.225V3.666ZM2.292 3C1.807 3 1.5 3.345 1.5 3.666V5.25H12.5V3.666C12.5 3.342 12.1955 3 11.713 3H2.292ZM12.5 5.75H11.125V5.755C11.125 6.097 10.845 6.375 10.5 6.375C10.155 6.375 9.875 6.097 9.875 5.755V5.75H7.625V5.755C7.625 6.097 7.345 6.375 7 6.375C6.655 6.375 6.375 6.097 6.375 5.755V5.75H4.125V5.755C4.125 6.097 3.845 6.375 3.5 6.375C3.155 6.375 2.875 6.097 2.875 5.755V5.75H1.5V10.25H2.875V10.245C2.875 9.903 3.155 9.625 3.5 9.625C3.845 9.625 4.125 9.903 4.125 10.245V10.25H6.375V10.245C6.375 9.903 6.655 9.625 7 9.625C7.345 9.625 7.625 9.903 7.625 10.245V10.25H9.875V10.245C9.875 9.903 10.155 9.625 10.5 9.625C10.845 9.625 11.125 9.903 11.125 10.245V10.25H12.5V5.75ZM1.5 10.75V14.225C1.5 14.393 1.627 14.5 1.75 14.5H12.25C12.365 14.5 12.497 14.395 12.5 14.2215V10.75H1.5Z" fill="white"/>
</svg>
