<svg width="49" height="44" viewBox="0 0 49 44" fill="none" xmlns="http://www.w3.org/2000/svg">
<path d="M8.67984 0.000431789H8.69322L8.72332 0.00212994C10.8038 0.154901 12.5582 1.39405 13.4797 3.13225C15.3224 1.5822 17.6602 0.770113 20.0523 0.849163C21.3066 0.900086 22.5441 1.18865 23.6814 1.69789L31.9097 5.27954C32.2676 5.43401 32.5753 5.66486 32.8211 5.94664C34.6809 5.99393 36.5154 6.39466 38.2297 7.12807L38.2397 7.13147L42.4041 8.94775C44.2142 9.73893 45.7562 11.0511 46.8396 12.7221C47.923 14.3931 48.5002 16.3496 48.5 18.35V36.4908C47.2663 36.4917 46.0755 36.0312 45.1552 35.1973V41.079C45.1552 42.3046 44.1718 43.3027 42.9643 43.3027H40.6564C39.4489 43.3027 38.4655 42.3046 38.4655 41.079V36.4178C37.0662 36.1991 35.7511 35.6009 34.6591 34.6864L32.5987 42.2367C32.5262 42.5335 32.3582 42.7974 32.1213 42.9864C31.8844 43.1755 31.5922 43.279 31.2909 43.2806H29.0833C28.1066 43.2806 27.5463 42.308 27.7755 41.4745L27.7805 41.4575L30.7774 31.3441C30.4819 31.384 30.1841 31.4038 29.886 31.4035H21.7916C21.7789 32.7373 21.2546 34.0136 20.3299 34.9614V42.583C20.3299 42.9394 20.079 43.2365 19.7713 43.2365H17.2827C17.2058 43.2356 17.13 43.2173 17.0608 43.1829C16.9917 43.1486 16.9309 43.099 16.883 43.0379C16.679 43.1638 16.4445 43.2296 16.2057 43.228H13.8978C13.0666 43.228 12.5431 42.4913 12.5431 41.7902V35.9C11.7524 35.4547 11.0934 34.8028 10.6346 34.0118C10.1759 33.2208 9.93401 32.3196 9.93415 31.4018V29.0134C9.32545 28.3011 8.86571 27.4707 8.58284 26.5725C8.49983 26.5369 8.40715 26.532 8.32096 26.5587C8.23476 26.5854 8.16053 26.6419 8.11122 26.7185L7.62622 27.5163C7.19139 28.2292 6.17122 28.2462 5.71967 27.5333L3.26122 23.6359C2.56224 23.433 1.94742 23.0044 1.50986 22.4151C1.0723 21.8258 0.835818 21.1079 0.836222 20.37C0.836222 19.4482 1.20917 18.5876 1.81626 17.9867C2.25777 17.5233 2.50864 16.919 2.50864 16.313V14.4187C1.82339 14.3614 1.18458 14.0441 0.719615 13.5301C0.254649 13.016 -0.00230006 12.3429 1.55154e-05 11.645V9.33647C1.55154e-05 7.46926 1.50519 5.94155 3.34484 5.94155H4.81657C5.28484 5.94155 5.71967 5.72088 6.0207 5.36441C6.4053 4.89257 6.91938 4.54738 7.49766 4.37269C8.07594 4.198 8.69232 4.20169 9.26853 4.38328C9.29694 3.92291 9.19991 3.46349 8.9881 3.05538C8.77629 2.64727 8.45787 2.30623 8.06774 2.06964L8.04265 2.05606L8.01924 2.03908C7.82445 1.90113 7.67871 1.70309 7.60365 1.47437C7.52859 1.24565 7.52822 0.998453 7.6026 0.769504C7.67698 0.540555 7.82213 0.342063 8.0165 0.203512C8.21087 0.0649605 8.44242 -0.00625903 8.67984 0.000431789ZM4.18272 14.4289V16.313C4.18272 17.138 3.92517 17.9256 3.48365 18.5876H4.36669C5.65445 18.5876 6.69134 19.6401 6.69134 20.9471V22.0674H8.26341V13.5801H5.85346V13.8008C5.85346 14.1403 5.56915 14.4289 5.23467 14.4289H4.18272ZM14.2172 36.484V41.5305H15.8896V36.467C15.337 36.5676 14.7717 36.5733 14.2172 36.484ZM20.0707 28.0085H29.8877C30.7804 28.0091 31.6404 27.6678 32.296 27.0529C32.5346 26.8283 32.8325 26.6792 33.1533 26.624C33.4741 26.5687 33.8038 26.6096 34.102 26.7417C34.4003 26.8737 34.6541 27.0912 34.8323 27.3675C35.0106 27.6438 35.1056 27.9669 35.1056 28.2971V28.4669C35.1056 29.7004 35.5884 30.8834 36.4478 31.7556C37.3072 32.6279 38.4727 33.1179 39.6881 33.1179H41.8103V23.9856L42.5211 23.4797C43.0088 23.1337 43.4448 22.718 43.8156 22.2457L45.1552 20.5482V18.35C45.1552 15.6171 43.5446 13.1388 41.0829 12.0677L36.9286 10.2548L36.9236 10.2531C35.5058 9.64764 33.983 9.33599 32.4448 9.33647H30.1035L22.8452 13.02C22.0096 13.4434 21.307 14.0951 20.8165 14.9018C20.326 15.7085 20.0671 16.6382 20.069 17.5861L20.0707 28.0085ZM10.486 2.30728C10.8157 2.95941 10.9734 3.6871 10.9436 4.41945C10.9139 5.1518 10.6978 5.86384 10.3163 6.48621C9.93486 7.10859 9.40108 7.62007 8.76699 7.97083C8.13289 8.3216 7.42009 8.49968 6.69803 8.48774H6.68967C6.22641 8.48774 5.85346 8.86118 5.85346 9.33647C5.85346 9.80157 6.23143 10.1852 6.68967 10.1852H8.35707C9.41003 10.1705 10.4192 9.75529 11.1851 9.02166C11.9509 8.28804 12.4176 7.28943 12.4929 6.22333C12.5427 5.44681 12.3819 4.6713 12.0281 3.98095C11.6743 3.2906 11.141 2.71177 10.486 2.30728ZM4.18105 21.217C4.40282 21.217 4.61552 21.1276 4.77234 20.9684C4.92916 20.8092 5.01726 20.5934 5.01726 20.3683C5.01726 20.1432 4.92916 19.9273 4.77234 19.7681C4.61552 19.609 4.40282 19.5195 4.18105 19.5195C3.95927 19.5195 3.74658 19.609 3.58976 19.7681C3.43294 19.9273 3.34484 20.1432 3.34484 20.3683C3.34484 20.5934 3.43294 20.8092 3.58976 20.9684C3.74658 21.1276 3.95927 21.217 4.18105 21.217Z" fill="black"/>
</svg>
