<svg width="16" height="16" viewBox="0 0 16 16" fill="none" xmlns="http://www.w3.org/2000/svg">
<path d="M9.7155 0.824041C9.65164 0.787392 9.58117 0.763699 9.50813 0.754318C9.43509 0.744938 9.36092 0.750054 9.28986 0.769374C9.21881 0.788694 9.15226 0.821839 9.09403 0.866911C9.03579 0.911983 8.98702 0.968097 8.9505 1.03204L8.95 1.03304L6.964 4.47304L6.724 4.36854C6.13158 4.10818 5.46555 4.06841 4.84636 4.2564C4.22716 4.4444 3.69567 4.84776 3.348 5.39354L3.3445 5.39904L3.341 5.40504L3.34 5.40454L0.740005 9.74454L0.737505 9.74804V9.75204H0.736505C0.505334 10.154 0.442835 10.6312 0.56269 11.0791C0.682545 11.527 0.974989 11.9092 1.376 12.142C1.6851 12.3244 2.0435 12.4055 2.401 12.374L2.372 12.425L2.3715 12.4255C2.2686 12.6034 2.20612 12.8018 2.1885 13.0065L1.9985 14.728V14.732C1.967 15.1385 2.4225 15.395 2.754 15.167L2.759 15.164L4.135 14.123C4.278 14.022 4.4025 13.893 4.4975 13.746V13.751C4.49754 14.1199 4.61413 14.4793 4.83061 14.778C5.04709 15.0766 5.35241 15.2992 5.70295 15.414C6.0535 15.5288 6.43134 15.5298 6.78254 15.4171C7.13373 15.3043 7.44032 15.0834 7.6585 14.786C7.72184 14.846 7.78934 14.9027 7.861 14.956C8.381 15.34 9.0605 15.501 9.7525 15.501H14.3725C14.6479 15.501 14.9136 15.3996 15.119 15.216C15.3243 15.0325 15.4548 14.7797 15.4855 14.506H15.4975V13.53H15.4985V9.10004C15.498 8.82498 15.4171 8.55606 15.2657 8.32641C15.1144 8.09676 14.8991 7.91639 14.6465 7.80754L9.2715 5.47454L11.114 2.28104L11.115 2.27954C11.1517 2.21567 11.1753 2.1452 11.1847 2.07217C11.1941 1.99913 11.189 1.92496 11.1697 1.8539C11.1504 1.78284 11.1172 1.71629 11.0721 1.65806C11.0271 1.59983 10.9709 1.55106 10.907 1.51454L10.9055 1.51404L9.71801 0.825041L9.7155 0.824041ZM6.4615 5.34304L5.1335 7.64304C4.87095 7.76958 4.65351 7.97358 4.5105 8.22754L2.9065 11.003C2.83997 11.1177 2.7446 11.2129 2.62988 11.2793C2.51515 11.3457 2.38506 11.381 2.2525 11.3815C2.12209 11.3822 1.99393 11.3476 1.8815 11.2815L1.8795 11.2805C1.793 11.2317 1.71705 11.1662 1.65608 11.0878C1.5951 11.0093 1.55031 10.9196 1.52431 10.8237C1.49831 10.7279 1.49161 10.6278 1.5046 10.5293C1.5176 10.4308 1.55002 10.3359 1.6 10.25L4.19 5.92704C4.40973 5.58299 4.7453 5.3289 5.13604 5.2107C5.52678 5.09249 5.94692 5.11798 6.3205 5.28254H6.3225L6.4615 5.34304ZM7.548 8.46204L8.7695 6.34504L14.25 8.72504L14.2485 8.72304C14.3229 8.75385 14.3864 8.80612 14.4309 8.87318C14.4754 8.94024 14.499 9.01904 14.4985 9.09954V9.49654H14.4975V13.5065H11.5925C11.4652 13.5062 11.3405 13.4969 11.2185 13.4785L10.897 13.408C10.4109 13.2677 9.98516 12.9699 9.6865 12.5615C9.2865 12.0145 8.5515 11.8765 7.9795 12.194L7.979 12.1945C7.63401 12.387 7.22601 12.6145 6.905 12.7945L6.3485 13.1045L6.343 13.108C6.11291 13.2404 5.83974 13.276 5.58339 13.2072C5.32703 13.1384 5.10843 12.9708 4.9755 12.741C4.8434 12.5108 4.80796 12.2376 4.87694 11.9813C4.94592 11.7249 5.11369 11.5064 5.3435 11.3735L7.456 10.1535C7.54659 10.1215 7.62603 10.0641 7.68482 9.98808C7.74361 9.91209 7.77926 9.82077 7.7875 9.72504C7.83835 9.28947 7.75478 8.84876 7.548 8.46204ZM2.7645 12.752L4.057 13.505C3.99824 13.5872 3.92606 13.6589 3.8435 13.717L3.84 13.7195L3.0825 14.2925L2.582 14.001L2.686 13.059V13.0535C2.696 12.9465 2.7225 12.8445 2.7645 12.752ZM9.696 3.73854L8.396 2.99254L8.884 2.14654L10.1815 2.89654L9.696 3.73854Z" fill="black"/>
</svg>
