<svg width="16" height="16" viewBox="0 0 16 16" fill="none" xmlns="http://www.w3.org/2000/svg">
<path d="M3.25 3.37351C3.11 3.37351 3 3.26351 3 3.12351V2.84851C3 2.70851 3.11 2.59851 3.25 2.59851C3.39 2.59851 3.5 2.70851 3.5 2.84851V3.12351C3.5 3.26351 3.39 3.37351 3.25 3.37351Z" fill="white"/>
<path d="M3.4615 0.575554C3.47767 0.584022 3.49336 0.59337 3.5085 0.603554L4.021 0.948554H4.1095C4.174 0.948554 4.2435 0.953554 4.3105 0.965054C5.24346 1.03653 6.11522 1.45697 6.752 2.14255C7.40124 2.83506 7.76161 3.7493 7.7595 4.69855V5.49855H12.4995C13.0005 5.49855 13.473 5.62155 13.8885 5.83855C13.8535 5.47405 13.6635 5.02405 12.8895 4.01555C12.718 3.82805 12.3995 3.20005 12.8115 2.50005C12.8115 2.50005 14.4365 3.95305 14.6865 4.35955C14.9035 4.71255 15.2105 5.53955 14.6565 6.41405C15.198 6.97274 15.5004 7.7205 15.4995 8.49855V12.0486C15.4995 12.4516 15.361 12.8471 15.1095 13.1606L13.4875 15.1886C13.4094 15.2852 13.3106 15.3632 13.1985 15.4168C13.0864 15.4704 12.9638 15.4984 12.8395 15.4986H12.2295C11.7395 15.4986 11.4075 14.9151 11.761 14.4986L12.867 13.0216L12.868 13.0206C12.9776 12.8756 13.0265 12.6937 13.0043 12.5133C12.9822 12.333 12.8908 12.1683 12.7495 12.0541C12.7476 12.3995 12.6296 12.7343 12.4145 13.0046L10.7935 15.0311C10.7388 15.0988 10.6696 15.1535 10.5911 15.1911C10.5125 15.2288 10.4266 15.2484 10.3395 15.2486H9.7295C9.433 15.2486 9.251 14.9051 9.441 14.6611L10.558 13.1701L10.559 13.1691C10.634 13.0692 10.6887 12.9556 10.7197 12.8347C10.7508 12.7138 10.7578 12.5879 10.7402 12.4643C10.7226 12.3407 10.6808 12.2217 10.6172 12.1143C10.5536 12.0068 10.4694 11.913 10.3695 11.8381L9.2495 10.9981H8.0045V14.8681C8.0045 15.2146 7.7205 15.4981 7.3745 15.4981H7.0995C6.8715 15.4981 6.6715 15.3781 6.561 15.1956C6.5031 15.2301 6.43694 15.2484 6.3695 15.2486H6.0945C6.01199 15.2477 5.93193 15.2204 5.86613 15.1706C5.80032 15.1208 5.75225 15.0512 5.729 14.9721L5.049 12.6371C4.87261 12.0152 4.7732 11.3741 4.753 10.7281C4.22974 10.489 3.78623 10.1046 3.47534 9.62057C3.16444 9.13654 2.99927 8.57333 2.9995 7.99805V4.73005L1.9425 5.15705C1.3575 5.39455 0.675002 5.09205 0.527002 4.43005C0.489434 4.26876 0.491315 4.10078 0.532486 3.94036C0.573656 3.77995 0.652901 3.63182 0.763502 3.50855L1.048 3.20255L1.6775 2.52505L1.934 2.24905C1.87644 2.14642 1.85653 2.0269 1.87771 1.91114C1.89889 1.79539 1.95983 1.69066 2.05 1.61505L2.052 1.61405C2.19234 1.50039 2.3415 1.40255 2.4995 1.32055V1.15305C2.4995 0.649554 3.0345 0.351554 3.4615 0.575054M4.8745 2.42505L4.511 2.22805C4.49219 2.44091 4.39825 2.64012 4.246 2.79005C4.19885 2.83559 4.1357 2.86079 4.07015 2.86022C4.0046 2.85965 3.9419 2.83336 3.89555 2.78701C3.8492 2.74066 3.8229 2.67795 3.82233 2.6124C3.82176 2.54685 3.84696 2.4837 3.8925 2.43655C3.93114 2.39921 3.96186 2.35445 3.98282 2.30497C4.00378 2.25549 4.01456 2.20229 4.0145 2.14855V2.05355L3.926 2.03655C3.85583 2.02464 3.789 1.99787 3.73 1.95805L3.5 1.80305V1.83305C3.50007 1.95152 3.45808 2.06616 3.3815 2.15655C3.3435 2.20005 2.861 2.72005 2.41 3.20505L1.78 3.88355L1.711 3.95755L1.8325 4.12255L3.3125 3.52505C3.38838 3.49446 3.4706 3.48294 3.55196 3.49153C3.63332 3.50011 3.71133 3.52853 3.77915 3.57428C3.84696 3.62004 3.90252 3.68173 3.94094 3.75396C3.97936 3.82619 3.99947 3.90674 3.9995 3.98855V4.39905C4.22654 4.30653 4.46934 4.25882 4.7145 4.25855H5.988C5.96132 3.98179 5.88866 3.71141 5.773 3.45855H5.6745C5.2315 3.45855 4.8745 3.10155 4.8745 2.65855V2.42505ZM5.9995 4.75855H4.7195C4.4635 4.75855 4.2145 4.82955 3.9995 4.95855V6.74855H4.1595C4.4195 6.74855 4.6545 6.90855 4.7495 7.15355L5.1945 8.30355C5.23754 8.41602 5.2575 8.53601 5.25317 8.65635C5.24885 8.7767 5.22034 8.89494 5.16934 9.00403C5.11834 9.11312 5.0459 9.21083 4.95633 9.29132C4.86676 9.37182 4.7619 9.43345 4.648 9.47255C5.01683 9.8108 5.49906 9.99848 5.9995 9.99855C6.13211 9.99855 6.25929 10.0512 6.35306 10.145C6.44682 10.2388 6.4995 10.3659 6.4995 10.4986C6.4995 10.8336 6.52384 11.1669 6.5725 11.4986H7.0045V10.4986C7.0045 10.3659 7.05718 10.2388 7.15095 10.145C7.24472 10.0512 7.37189 9.99855 7.5045 9.99855H10.5905L13.1975 6.62355C12.9741 6.54064 12.7378 6.49831 12.4995 6.49855H12.2295L10.9145 8.14855C10.7267 8.38625 10.4873 8.57816 10.2145 8.70982C9.94163 8.84148 9.64245 8.90943 9.3395 8.90855H7.0945C6.5245 8.90855 5.9995 8.56855 5.7695 8.04355L5.1295 6.59855C5.0245 6.35355 5.0445 6.07855 5.1895 5.85355C5.3345 5.63355 5.5795 5.49855 5.8445 5.49855H5.9995V4.75855ZM5.9995 5.99855H5.8445C5.7445 5.99855 5.6595 6.04855 5.6045 6.12855C5.5545 6.21355 5.5445 6.30855 5.5845 6.39855L6.2245 7.84355C6.3795 8.18855 6.7195 8.40855 7.0945 8.40855H9.3395C9.56734 8.40978 9.79247 8.35909 9.99779 8.26033C10.2031 8.16156 10.3832 8.01732 10.5245 7.83855L11.5915 6.49855H10.495L9.7295 7.43355C9.5495 7.65855 9.2845 7.78355 8.9995 7.78355C8.4795 7.78355 8.0545 7.35855 8.0545 6.83855V6.49855H6.4995C6.36689 6.49855 6.23972 6.44588 6.14595 6.35211C6.05218 6.25834 5.9995 6.13116 5.9995 5.99855ZM8.5545 6.49855V6.84355C8.5545 7.08855 8.7545 7.28855 8.9995 7.28855C9.1345 7.28855 9.2595 7.22855 9.3445 7.12355L9.8525 6.49855H8.5545ZM13.6465 6.86055L11.2205 9.99905C11.5252 10.0081 11.82 10.1098 12.0655 10.2906L12.0695 10.2936L12.876 10.8986H14.5V9.88355H13.75C13.49 9.88355 13.25 9.73855 13.135 9.50355C13.076 9.38897 13.0508 9.25998 13.0623 9.13162C13.0738 9.00327 13.1216 8.88082 13.2 8.77855L14.2025 7.44905C14.0594 7.21708 13.8703 7.01682 13.647 6.86055M14.4305 7.97405L13.6 9.07355C13.535 9.15855 13.565 9.24355 13.58 9.27355C13.595 9.30355 13.645 9.37855 13.75 9.37855H14.5V8.49855C14.4993 8.31689 14.4765 8.14205 14.4305 7.97405ZM14.4995 11.3986H13.5135C13.6804 11.566 13.8106 11.7665 13.8957 11.9872C13.9807 12.2079 14.0188 12.4438 14.0075 12.6801L14.3195 12.5481L14.329 12.5361C14.439 12.3974 14.4989 12.2256 14.499 12.0486L14.4995 11.3986ZM7.0045 11.9986H6.6645C6.6965 12.1432 6.73317 12.2866 6.7745 12.4286L6.9445 13.0136H7.0045V11.9986ZM5.903 13.0136L5.8145 12.7086C5.7465 12.4746 5.68934 12.2379 5.643 11.9986H5.4065C5.44184 12.1669 5.48284 12.3339 5.5295 12.4996L5.6795 13.0136H5.903ZM5.825 13.5136L6.185 14.7486H6.237L6.157 13.8856L6.049 13.5136H5.825ZM5.319 11.4986H5.563C5.53967 11.3196 5.523 11.1397 5.513 10.9591C5.4283 10.9453 5.34422 10.928 5.261 10.9071C5.27267 11.1047 5.292 11.3019 5.319 11.4986ZM4.279 9.01855H4.364C4.499 9.01855 4.614 8.95355 4.689 8.84355C4.759 8.73855 4.774 8.60355 4.729 8.48355L4.284 7.33355C4.27403 7.30853 4.25679 7.28707 4.23451 7.27192C4.21224 7.25677 4.18594 7.24863 4.159 7.24855H3.999V7.99855C3.999 8.37105 4.1015 8.71955 4.279 9.01855Z" fill="white"/>
</svg>
