<svg width="45" height="55" viewBox="0 0 45 55" fill="none" xmlns="http://www.w3.org/2000/svg">
<path d="M25.0609 39.1151C25.2764 39.1151 25.4831 39.0295 25.6355 38.8772C25.7878 38.7248 25.8734 38.5181 25.8734 38.3026C25.8734 38.0872 25.7878 37.8805 25.6355 37.7281C25.4831 37.5757 25.2764 37.4901 25.0609 37.4901C24.8454 37.4901 24.6388 37.5757 24.4864 37.7281C24.334 37.8805 24.2484 38.0872 24.2484 38.3026C24.2484 38.5181 24.334 38.7248 24.4864 38.8772C24.6388 39.0295 24.8454 39.1151 25.0609 39.1151ZM25.8734 41.3808C25.8734 41.5963 25.7878 41.8029 25.6355 41.9553C25.4831 42.1077 25.2764 42.1933 25.0609 42.1933C24.8454 42.1933 24.6388 42.1077 24.4864 41.9553C24.334 41.8029 24.2484 41.5963 24.2484 41.3808C24.2484 41.1653 24.334 40.9586 24.4864 40.8062C24.6388 40.6539 24.8454 40.5683 25.0609 40.5683C25.2764 40.5683 25.4831 40.6539 25.6355 40.8062C25.7878 40.9586 25.8734 41.1653 25.8734 41.3808ZM21.7641 21.5839L20.9516 24.2245C20.7797 24.7714 21.1859 25.3183 21.7484 25.3183H22.9516C23.5141 25.3183 23.9203 24.7714 23.7484 24.2245L22.9359 21.5995C22.7641 21.0058 21.9359 21.0058 21.7641 21.5839ZM20.0766 26.2401C20.7829 26.6009 21.5647 26.789 22.3578 26.789C23.1509 26.789 23.9327 26.6009 24.6391 26.2401C24.8734 26.1151 25.1078 26.3651 24.9672 26.5839C24.6856 27.0199 24.2992 27.3784 23.8434 27.6266C23.3876 27.8749 22.8768 28.0049 22.3578 28.0049C21.8388 28.0049 21.328 27.8749 20.8722 27.6266C20.4164 27.3784 20.03 27.0199 19.7484 26.5839C19.6078 26.3808 19.8578 26.1151 20.0766 26.2401ZM18.6859 21.1464C18.6862 21.1987 18.6699 21.2498 18.6396 21.2925C18.6092 21.3351 18.5662 21.3671 18.5167 21.384C18.4672 21.401 18.4136 21.4019 18.3635 21.3867C18.3134 21.3716 18.2693 21.3411 18.2375 21.2995C18.1652 21.4169 18.1253 21.5512 18.1217 21.689C18.1182 21.8267 18.1511 21.963 18.2172 22.0839H19.6234C19.6981 21.939 19.7267 21.7747 19.7054 21.6131C19.6842 21.4515 19.614 21.3002 19.5044 21.1796C19.3948 21.0589 19.2509 20.9746 19.0921 20.938C18.9333 20.9013 18.767 20.9141 18.6156 20.9745C18.6603 21.0207 18.6854 21.0822 18.6859 21.1464ZM25.6078 21.1464C25.608 21.2037 25.5885 21.2593 25.5526 21.304C25.5167 21.3486 25.4665 21.3796 25.4105 21.3916C25.3545 21.4037 25.296 21.3962 25.2449 21.3703C25.1938 21.3444 25.1531 21.3018 25.1297 21.2495C25.0335 21.3833 24.9821 21.5441 24.9828 21.7089C24.9828 21.8183 25.0187 21.937 25.0484 22.0386L25.0609 22.0839H26.4828C26.5453 21.9745 26.5766 21.8495 26.5766 21.7089C26.5759 21.5821 26.5451 21.4572 26.4867 21.3446C26.4282 21.232 26.3439 21.135 26.2406 21.0614C26.1372 20.9878 26.0179 20.9399 25.8924 20.9215C25.7669 20.9032 25.6388 20.9149 25.5187 20.9558C25.5465 20.9792 25.5689 21.0083 25.5843 21.0413C25.5997 21.0742 25.6077 21.1101 25.6078 21.1464Z" fill="#777777"/>
<g filter="url(#filter0_d_1072_9)">
<path d="M5.56092 46.8776C5.33617 46.8769 5.1142 46.8278 4.9101 46.7337C4.70599 46.6396 4.52454 46.5027 4.37808 46.3322C4.23162 46.1617 4.12358 45.9617 4.0613 45.7458C3.99903 45.5298 3.98398 45.303 4.01717 45.0807C4.23801 43.6599 4.56301 42.2645 4.99217 40.8948L5.04374 40.7541L5.06561 40.6916C5.88695 38.1162 7.2788 35.7592 9.13749 33.7963C9.12855 33.7002 9.12855 33.6034 9.13749 33.5073C9.15155 33.2071 9.22557 32.9129 9.35518 32.6418C9.4848 32.3708 9.66739 32.1285 9.89217 31.9291C10.9596 31.006 12.1255 30.2032 13.3687 29.5354C13.2772 29.34 13.1938 29.1408 13.1187 28.9385C12.2314 27.9954 11.7379 26.749 11.739 25.4541V24.8057C11.2812 24.3009 10.9546 23.6913 10.7878 23.0306C10.6211 22.3698 10.6193 21.6782 10.7828 21.0166C10.3176 20.4372 10.0651 19.7159 10.0672 18.9729C10.0672 18.4323 10.2015 17.8994 10.4562 17.4229C10.2 16.9657 10.066 16.4501 10.0672 15.926C10.0609 15.3588 10.2078 14.801 10.4922 14.3104C10.2023 13.8904 10.0535 13.3892 10.0672 12.8791C10.0609 12.3119 10.2078 11.7541 10.4922 11.2635C10.201 10.8436 10.0521 10.3414 10.0672 9.83069C10.064 9.26819 10.2078 8.7135 10.4859 8.22288C10.1502 7.41656 10.1401 6.51147 10.4578 5.69788C10.7556 4.94355 11.3223 4.32625 12.0484 3.96506L12.1109 3.97444C12.1109 3.95361 12.114 3.93277 12.1203 3.91194L12.125 3.88538C12.2635 3.2473 12.591 2.66574 13.0648 2.21647C13.5386 1.7672 14.1367 1.47105 14.7812 1.36663C14.9885 1.34073 15.1973 1.32873 15.4062 1.33069C15.8898 0.829304 16.5132 0.48514 17.1951 0.343009C17.8771 0.200878 18.586 0.267365 19.2297 0.533814C19.6753 0.23441 20.1902 0.0542225 20.7252 0.0104557C21.2603 -0.0333111 21.7976 0.0608032 22.2859 0.283813C22.7879 0.0706778 23.3322 -0.0238454 23.8766 0.00758965C24.4211 0.0390247 24.9509 0.195571 25.425 0.465063C26.0666 0.23674 26.7595 0.193762 27.4244 0.341054C28.0893 0.488346 28.6992 0.81995 29.1844 1.29788C29.4062 1.29579 29.6276 1.31038 29.8484 1.34163C30.4996 1.43786 31.1068 1.72773 31.5911 2.17357C32.0754 2.61941 32.4144 3.2006 32.564 3.84163C32.5651 3.8635 32.5693 3.88486 32.5765 3.90569L32.5859 3.94475C33.2406 4.24631 33.7734 4.76038 34.0953 5.40413C34.3146 5.82625 34.4382 6.29157 34.4571 6.76691C34.476 7.24225 34.3898 7.71591 34.2047 8.15413C34.4828 8.66975 34.6328 9.24475 34.6437 9.83069C34.6437 10.3713 34.5109 10.9041 34.2562 11.3807C34.2562 11.3807 34.2672 11.3557 34.2734 11.3651C34.5143 11.8323 34.64 12.3503 34.64 12.876C34.64 13.4017 34.5143 13.9197 34.2734 14.3869C34.5094 14.8651 34.6359 15.3901 34.6406 15.9229C34.6406 16.4635 34.5078 16.9948 34.2531 17.4713C34.5094 17.9291 34.6422 18.4463 34.6406 18.9713C34.6406 19.7229 34.3765 20.4526 33.8984 21.0338C34.0579 21.6886 34.0552 22.3725 33.8905 23.026C33.7257 23.6795 33.404 24.2829 32.9531 24.7838V25.451C32.9531 26.7432 32.4625 27.9854 31.5781 28.926C31.5035 29.1278 31.4206 29.3264 31.3297 29.5213C32.5535 30.1736 33.7011 30.9597 34.7515 31.8651C35.0158 32.0945 35.2237 32.3817 35.3592 32.7044C35.4946 33.0271 35.554 33.3767 35.5328 33.726C37.4548 35.7501 38.8877 38.1874 39.7219 40.851C40.1547 42.2354 40.4812 43.651 40.6984 45.0854C40.7315 45.3077 40.7162 45.5344 40.6536 45.7503C40.591 45.9661 40.4826 46.1659 40.3357 46.336C40.1889 46.5061 40.0071 46.6426 39.8027 46.736C39.5984 46.8295 39.3763 46.8778 39.1515 46.8776H5.56092ZM23.0609 43.7526H37.2562C37.1045 43.0882 36.9273 42.4299 36.725 41.7791C35.9505 39.291 34.5412 37.0475 32.6359 35.2698L32.5922 35.3182C32.3422 35.5838 31.9359 35.5994 31.6703 35.3651C30.5093 34.385 29.2017 33.5931 27.7953 33.0182C27.4209 34.0131 26.7822 34.887 25.9479 35.5459C25.1137 36.2048 24.1155 36.6236 23.0609 36.7573V43.7526ZM7.45624 43.7526H21.639V36.7619C20.5816 36.6329 19.5789 36.2195 18.7378 35.5657C17.8966 34.912 17.2486 34.0423 16.8625 33.0494C15.4632 33.6293 14.1644 34.4266 13.014 35.4119C12.7328 35.6463 12.3265 35.6151 12.0765 35.3651L12.0297 35.3135C10.1686 37.0708 8.786 39.2735 8.01249 41.7135L7.94061 41.9166C7.76874 42.5026 7.5953 43.1229 7.45624 43.7526ZM22.3265 34.8807C23.042 34.8817 23.7384 34.6499 24.3106 34.2204C24.8828 33.7908 25.2997 33.1868 25.4984 32.4994C24.943 32.6487 24.3704 32.7244 23.7953 32.7244H20.8578C20.2651 32.7234 19.6948 32.6474 19.1469 32.4963C19.3476 33.1842 19.7661 33.7884 20.3394 34.2183C20.9127 34.6483 21.61 34.8807 22.3265 34.8807ZM15.9953 27.7323C16.8375 29.7948 18.7359 31.1619 20.8578 31.1619H23.7953C26.4125 31.1619 28.6906 29.0791 29.064 26.1838L29.3875 20.6619H27.8047C28.014 20.9119 28.1687 21.2088 28.2484 21.5369C28.3109 21.8026 28.1078 22.0682 27.8265 22.0682H27.1578C27.1863 21.9505 27.2009 21.8299 27.2015 21.7088C27.202 21.5115 27.1609 21.3164 27.0809 21.136C27.001 20.9556 26.8839 20.7941 26.7375 20.6619H24.8531C24.7079 20.7943 24.5928 20.9562 24.5154 21.1368C24.4381 21.3173 24.4003 21.5124 24.4047 21.7088C24.4047 21.8276 24.4187 21.9474 24.4469 22.0682H24.3265C24.1078 22.0682 23.9203 21.8651 23.9672 21.6463C24.0378 21.2839 24.1991 20.9452 24.4359 20.6619H20.2687C20.5095 20.9441 20.6746 21.2828 20.7484 21.6463C20.7953 21.8651 20.6078 22.0682 20.389 22.0682H20.2672C20.2956 21.9505 20.3103 21.8299 20.3109 21.7088C20.3156 21.5118 20.2773 21.3161 20.1988 21.1353C20.1203 20.9546 20.0034 20.793 19.8562 20.6619H17.9781C17.8317 20.7941 17.7146 20.9556 17.6347 21.136C17.5547 21.3164 17.5136 21.5115 17.514 21.7088C17.514 21.8276 17.5286 21.9474 17.5578 22.0682H16.889C16.6078 22.0682 16.4047 21.8026 16.4672 21.5369C16.5469 21.2088 16.7015 20.9119 16.9109 20.6619H15.2547L15.589 26.1823C15.6443 26.6041 15.737 27.0067 15.8672 27.3901C15.9005 27.4578 15.9286 27.5276 15.9515 27.5994L15.9953 27.7323Z" fill="white"/>
</g>
<defs>
<filter id="filter0_d_1072_9" x="0" y="0" width="44.7154" height="54.8777" filterUnits="userSpaceOnUse" color-interpolation-filters="sRGB">
<feFlood flood-opacity="0" result="BackgroundImageFix"/>
<feColorMatrix in="SourceAlpha" type="matrix" values="0 0 0 0 0 0 0 0 0 0 0 0 0 0 0 0 0 0 127 0" result="hardAlpha"/>
<feOffset dy="4"/>
<feGaussianBlur stdDeviation="2"/>
<feComposite in2="hardAlpha" operator="out"/>
<feColorMatrix type="matrix" values="0 0 0 0 0 0 0 0 0 0 0 0 0 0 0 0 0 0 0.25 0"/>
<feBlend mode="normal" in2="BackgroundImageFix" result="effect1_dropShadow_1072_9"/>
<feBlend mode="normal" in="SourceGraphic" in2="effect1_dropShadow_1072_9" result="shape"/>
</filter>
</defs>
</svg>
